<?xml version="1.0" standalone="no"?>
<!DOCTYPE svg PUBLIC "-//W3C//DTD SVG 20010904//EN"
 "http://www.w3.org/TR/2001/REC-SVG-20010904/DTD/svg10.dtd">
<svg version="1.0" xmlns="http://www.w3.org/2000/svg"
 width="554.000000pt" height="554.000000pt" viewBox="0 0 554.000000 554.000000"
 preserveAspectRatio="xMidYMid meet">
<metadata>
Created by potrace 1.11, written by Peter Selinger 2001-2013
</metadata>
<g transform="translate(0.000000,554.000000) scale(0.100000,-0.100000)"
fill="#000000" stroke="none">
<path d="M2608 5527 c-21 -5 -38 -15 -38 -22 0 -24 86 -58 205 -79 37 -7 179
-8 222 -2 81 12 95 47 31 76 -50 22 -146 41 -153 30 -3 -4 13 -10 33 -14 47
-7 82 -40 63 -59 -21 -21 -177 -13 -243 12 -53 21 -95 51 -69 51 6 0 11 4 11
8 0 11 -15 11 -62 -1z"/>
<path d="M2808 5533 c7 -3 16 -2 19 1 4 3 -2 6 -13 5 -11 0 -14 -3 -6 -6z"/>
<path d="M2285 5490 c-74 -19 -199 -59 -185 -59 8 -1 43 6 78 14 35 8 68 13
73 9 5 -3 21 -28 34 -55 14 -27 27 -49 30 -49 2 0 27 5 54 11 l50 11 -27 41
c-23 37 -69 89 -75 86 -1 -1 -15 -5 -32 -9z"/>
<path d="M2962 5362 c-12 -15 -35 -25 -77 -33 -92 -18 -93 -18 -72 -33 12 -9
38 -12 80 -9 34 2 76 5 92 7 26 1 37 -7 86 -70 31 -40 80 -109 110 -153 l54
-81 63 0 c48 0 61 3 56 13 -28 47 -184 245 -242 308 -59 63 -75 75 -102 74
-21 0 -38 -8 -48 -23z"/>
<path d="M1830 5365 c-25 -7 -56 -18 -70 -24 l-25 -12 25 7 c50 13 94 10 98
-8 12 -59 -211 -183 -268 -148 -25 15 0 62 54 98 67 45 46 40 -35 -8 -156 -92
-141 -172 23 -128 151 40 313 150 306 207 -2 21 -8 26 -33 27 -16 1 -50 -4
-75 -11z"/>
<path d="M3386 5348 c-30 -24 -12 -68 57 -141 118 -123 259 -211 389 -243 176
-43 206 42 64 182 -82 81 -156 127 -273 172 -97 38 -208 51 -237 30z m204 -38
c87 -24 225 -125 272 -199 32 -52 35 -77 11 -89 -57 -29 -211 49 -330 169
-117 116 -100 159 47 119z"/>
<path d="M1705 5320 c-3 -5 -2 -10 4 -10 5 0 13 5 16 10 3 6 2 10 -4 10 -5 0
-13 -4 -16 -10z"/>
<path d="M2315 5303 c-206 -46 -296 -168 -225 -305 69 -132 231 -175 435 -114
226 68 233 322 10 405 -53 20 -163 27 -220 14z m162 -57 c115 -54 144 -209 49
-274 -93 -63 -223 -54 -299 23 -36 36 -58 111 -47 159 11 49 26 65 85 92 67
32 143 32 212 0z"/>
<path d="M1272 5095 c-45 -31 -82 -58 -82 -61 0 -3 12 3 28 14 52 36 55 35 26
-9 -31 -46 -67 -119 -59 -119 2 0 19 7 37 16 26 12 41 32 70 92 20 42 46 87
58 100 34 36 11 26 -78 -33z"/>
<path d="M1743 5137 c-19 -6 -48 -28 -67 -51 -20 -25 -62 -56 -110 -81 -50
-26 -76 -46 -76 -57 0 -10 2 -18 5 -18 2 0 40 16 84 35 43 19 83 35 88 35 4 0
8 -37 9 -83 2 -137 8 -247 14 -258 4 -5 30 1 65 15 l59 24 -3 52 c-1 29 -4 61
-6 72 -4 21 -15 164 -19 260 -1 32 -4 59 -7 61 -2 2 -19 -1 -36 -6z"/>
<path d="M4070 5142 c0 -33 230 -169 358 -210 100 -33 -60 98 -215 176 -66 34
-143 52 -143 34z m185 -68 c68 -35 160 -102 152 -110 -6 -6 -67 20 -164 68
-75 37 -123 70 -123 85 0 12 68 -9 135 -43z"/>
<path d="M3259 4874 c-169 -50 -162 -280 16 -529 127 -177 288 -291 428 -302
147 -12 224 55 226 197 2 143 -96 347 -231 479 -132 131 -309 193 -439 155z
m259 -108 c148 -90 279 -300 287 -462 10 -220 -233 -179 -409 70 -133 187
-168 363 -83 417 49 31 129 21 205 -25z"/>
<path d="M1173 4860 c-144 -65 -287 -249 -317 -407 -15 -82 -7 -130 29 -160
20 -17 34 -22 58 -18 44 8 116 50 164 95 155 146 254 427 173 492 -28 23 -54
22 -107 -2z m36 -64 c39 -46 -28 -257 -111 -351 -142 -161 -230 -46 -130 169
64 135 197 235 241 182z"/>
<path d="M4015 4826 c6 -28 3 -36 -16 -50 -13 -9 -43 -16 -67 -16 -38 0 -42
-2 -33 -17 25 -47 35 -51 120 -58 63 -4 88 -10 97 -23 38 -49 161 -265 228
-399 l76 -153 45 0 c52 0 54 -13 -26 145 -102 201 -207 378 -309 520 -50 69
-63 81 -90 83 -30 2 -31 2 -25 -32z"/>
<path d="M2608 4803 c-22 -3 -29 -11 -34 -39 -13 -68 -83 -123 -197 -154 -39
-10 -47 -16 -42 -31 3 -11 8 -28 11 -39 3 -13 12 -19 22 -16 92 24 244 58 247
54 3 -2 41 -110 86 -239 44 -129 94 -273 111 -321 17 -48 33 -86 37 -84 3 2
24 7 46 10 22 4 47 8 55 10 8 2 27 7 43 10 22 5 26 10 18 24 -5 9 -44 109 -86
222 -42 113 -113 294 -157 403 -89 216 -77 202 -160 190z"/>
<path d="M4398 4782 c-52 -11 -7 -140 118 -337 106 -166 221 -305 288 -346 38
-23 92 -25 100 -3 37 96 -97 361 -273 543 -100 102 -184 154 -233 143z m153
-109 c173 -132 367 -503 263 -503 -68 0 -354 420 -354 520 0 31 37 25 91 -17z"/>
<path d="M4770 4633 c0 -6 5 -15 10 -18 16 -10 12 -38 -5 -31 -8 3 -15 2 -15
-3 0 -15 49 -61 74 -71 16 -6 47 -43 81 -95 30 -47 55 -88 55 -91 0 -3 8 -18
19 -32 10 -15 39 -67 64 -117 52 -102 73 -133 82 -123 13 13 -110 236 -226
408 -85 125 -138 192 -139 173z"/>
<path d="M752 4563 c-7 -3 -34 -37 -61 -76 -27 -40 -61 -83 -76 -97 -15 -14
-33 -38 -42 -53 l-14 -28 25 17 c14 9 26 19 26 23 0 3 11 14 24 23 l24 17 -24
-73 c-23 -73 -75 -308 -69 -314 2 -2 17 9 34 25 28 25 34 41 57 158 25 124 82
320 105 358 12 21 10 26 -9 20z"/>
<path d="M1745 4553 c-119 -43 -198 -113 -253 -227 -59 -122 -77 -287 -47
-429 41 -196 167 -322 307 -310 176 15 329 164 385 373 23 88 23 254 -1 335
-36 122 -102 211 -184 251 -53 26 -146 28 -207 7z m125 -98 c87 -46 141 -178
142 -346 0 -48 -3 -92 -6 -97 -3 -5 -8 -24 -11 -42 -9 -50 -55 -140 -88 -173
-62 -61 -153 -81 -214 -49 -41 23 -93 96 -114 162 -30 92 -36 236 -15 320 48
187 185 288 306 225z"/>
<path d="M1119 4260 c-28 -15 -40 -31 -57 -75 -28 -72 -62 -116 -134 -171 -51
-40 -58 -49 -58 -80 0 -19 3 -34 7 -34 3 0 41 20 84 45 43 25 80 45 81 45 2 0
5 -75 6 -167 1 -93 4 -184 6 -203 6 -41 19 -232 19 -272 1 -34 12 -35 73 -5
l46 22 -6 95 c-3 52 -8 105 -10 117 -9 42 -20 388 -18 546 1 86 1 157 -1 157
-1 -1 -18 -9 -38 -20z"/>
<path d="M439 4233 c-25 -31 -55 -77 -68 -103 -11 -23 -11 -24 3 -5 49 65 45
63 46 36 0 -23 -73 -249 -105 -326 -30 -70 -57 -108 -66 -93 -5 7 -7 20 -4 28
2 8 6 33 10 54 6 42 67 206 91 243 19 31 18 43 -2 15 -44 -64 -134 -333 -134
-404 0 -32 19 -37 43 -10 61 67 245 582 208 582 -4 0 -14 -8 -22 -17z"/>
<path d="M4925 3917 c8 -48 8 -43 6 -80 -1 -22 -8 -31 -36 -42 l-34 -15 16
-43 16 -42 54 0 55 0 30 -90 c33 -100 118 -426 118 -453 0 -26 20 -92 28 -92
4 0 14 6 24 13 15 12 14 21 -8 127 -44 208 -107 422 -185 628 -43 113 -49 124
-75 128 -13 2 -14 -5 -9 -39z"/>
<path d="M4412 3934 c-52 -27 -76 -91 -75 -204 0 -36 12 -158 18 -180 0 -3 9
-41 19 -85 29 -125 93 -301 149 -409 55 -105 140 -205 177 -207 71 -5 81 -1
121 41 54 56 73 126 72 265 -1 257 -112 552 -267 707 -78 79 -151 104 -214 72z
m156 -128 c93 -58 183 -239 236 -473 20 -89 16 -258 -7 -301 -38 -69 -97 -65
-153 11 -110 150 -227 566 -200 711 8 40 40 76 68 76 10 0 35 -11 56 -24z"/>
<path d="M5137 3920 c-11 -44 7 -139 75 -374 73 -256 134 -396 173 -396 8 0
18 12 21 26 10 40 -4 205 -22 266 -3 10 -7 30 -10 44 -22 121 -124 361 -178
419 -38 40 -51 43 -59 15z m117 -154 c70 -142 129 -351 129 -459 0 -72 -17
-79 -46 -21 -43 87 -132 385 -151 507 -13 83 20 70 68 -27z"/>
<path d="M582 3903 c-18 -9 -46 -33 -62 -54 -34 -41 -93 -165 -106 -219 -4
-19 -8 -37 -9 -40 -1 -3 -5 -27 -10 -55 -4 -27 -9 -59 -11 -70 -7 -32 -6 -206
0 -250 17 -108 54 -193 96 -215 44 -23 109 20 150 99 27 54 58 165 74 266 14
91 16 382 2 437 -24 98 -64 131 -124 101z m53 -176 c12 -53 14 -324 2 -344 -3
-4 -8 -30 -12 -58 -16 -126 -73 -226 -118 -209 -46 17 -76 146 -72 304 5 197
54 345 130 388 29 16 54 -13 70 -81z"/>
<path d="M3900 3893 c-69 -9 -68 -8 -63 -68 8 -103 -40 -163 -158 -194 l-45
-13 20 -59 c24 -68 16 -66 161 -40 55 11 103 16 107 12 21 -20 159 -501 203
-711 13 -61 18 -85 30 -150 3 -19 29 -16 89 9 39 17 46 24 41 40 -3 11 -8 28
-10 39 -40 209 -113 487 -187 712 -63 193 -144 411 -156 421 -4 3 -18 4 -32 2z"/>
<path d="M2845 3725 c-203 -48 -306 -233 -300 -538 10 -516 347 -976 664 -908
233 50 360 263 347 584 -10 267 -117 533 -283 707 -130 137 -278 191 -428 155z
m213 -170 c187 -98 340 -428 340 -730 -1 -193 -52 -311 -156 -361 -174 -82
-374 123 -475 486 -37 131 -38 140 -42 270 -4 128 8 193 51 265 57 98 174 127
282 70z"/>
<path d="M273 3618 c-6 -7 -18 -42 -27 -78 -10 -36 -31 -89 -47 -117 -16 -29
-29 -65 -29 -79 l0 -27 28 32 28 32 0 -213 c0 -240 4 -338 14 -338 4 0 15 9
24 19 14 16 16 31 11 83 -6 67 -7 426 -1 493 20 209 20 219 -1 193z"/>
<path d="M1938 3456 c-54 -19 -57 -22 -63 -61 -4 -22 -9 -53 -11 -70 -8 -46
-55 -124 -96 -159 -21 -18 -63 -45 -93 -60 l-56 -27 6 -47 c12 -88 1 -85 147
-36 73 24 133 44 134 44 2 0 10 -35 19 -77 23 -105 107 -437 140 -548 27 -92
106 -338 110 -343 3 -3 167 26 171 31 2 2 -22 81 -52 177 -31 96 -57 182 -59
191 -2 9 -24 94 -49 190 -48 184 -107 444 -151 669 -15 74 -30 138 -33 141 -4
3 -33 -4 -64 -15z"/>
<path d="M77 3307 c-9 -29 -19 -76 -22 -103 l-5 -49 13 57 c15 67 27 84 28 42
3 -221 -10 -497 -26 -513 -15 -15 -20 28 -20 174 0 90 -3 161 -8 158 -11 -7
-8 -289 4 -360 12 -66 24 -79 38 -40 22 58 41 459 32 665 -2 38 -17 24 -34
-31z"/>
<path d="M42 3120 c0 -19 2 -27 5 -17 2 9 2 25 0 35 -3 9 -5 1 -5 -18z"/>
<path d="M1052 3098 c-170 -82 -217 -436 -102 -778 37 -111 75 -187 133 -266
82 -112 169 -167 259 -163 93 5 149 67 173 194 12 62 12 240 1 310 -60 366
-182 637 -317 705 -48 25 -93 25 -147 -2z m147 -176 c67 -71 126 -215 171
-420 26 -115 37 -316 21 -375 -35 -125 -139 -132 -232 -15 -171 216 -240 687
-121 822 23 26 73 46 97 40 11 -3 40 -26 64 -52z"/>
<path d="M5429 3059 c-1 -2 -2 -36 -4 -75 -2 -40 -10 -87 -20 -107 -9 -19 -15
-50 -13 -68 3 -32 4 -32 21 -15 10 10 21 15 25 11 4 -4 7 -112 7 -240 0 -156
3 -231 10 -224 20 19 11 579 -11 693 -3 18 -13 34 -15 25z"/>
<path d="M5186 2891 c-24 -26 -55 -130 -64 -211 -9 -84 -8 -439 1 -510 9 -65
46 -145 67 -146 23 -1 60 36 85 86 100 199 93 666 -12 782 -21 23 -55 23 -77
-1z m86 -131 c9 -19 19 -55 23 -80 4 -25 9 -56 12 -70 9 -56 3 -240 -11 -316
-16 -95 -48 -164 -75 -164 -41 0 -58 111 -55 361 3 234 23 315 74 306 8 -1 22
-18 32 -37z"/>
<path d="M592 2873 c-15 -14 -22 -35 -26 -86 -7 -79 -26 -122 -67 -155 -29
-24 -35 -50 -21 -99 6 -21 9 -22 32 -10 14 8 40 18 57 24 l31 11 17 -76 c29
-136 93 -373 135 -504 l41 -128 39 2 c22 1 40 6 40 11 0 6 -20 71 -44 146 -42
127 -110 377 -122 446 -3 16 -9 48 -14 70 -5 22 -12 56 -15 75 -3 19 -8 42
-10 50 -2 8 -7 38 -11 65 -3 28 -8 57 -9 67 -2 9 -7 37 -10 62 -8 51 -13 54
-43 29z"/>
<path d="M4878 2734 c-24 -12 -28 -21 -29 -57 -1 -54 -4 -72 -24 -124 -15 -37
-33 -59 -101 -113 -16 -13 -19 -26 -16 -63 l4 -48 75 41 c42 22 77 39 78 38
12 -13 20 -528 10 -605 l-4 -33 39 26 c21 14 40 35 43 46 7 24 0 578 -7 623
-2 17 -10 82 -16 145 -7 63 -15 120 -19 127 -4 8 -13 8 -33 -3z"/>
<path d="M232 2665 c-63 -45 -51 -320 24 -565 49 -159 140 -310 187 -310 23 0
47 28 48 58 1 15 2 41 3 57 3 64 -45 321 -85 460 -47 162 -88 262 -116 287
-31 26 -39 28 -61 13z m51 -113 c33 -36 88 -209 126 -398 30 -149 36 -225 18
-249 -15 -20 -16 -20 -40 3 -43 41 -100 176 -132 317 -2 6 -6 27 -9 49 -3 21
-9 42 -12 47 -11 18 -7 205 5 227 14 27 23 27 44 4z"/>
<path d="M89 2555 c-3 -3 -5 -37 -3 -75 2 -39 0 -80 -5 -92 -10 -29 1 -73 19
-73 9 0 27 -54 56 -170 49 -193 85 -310 102 -327 19 -19 15 10 -13 91 -30 89
-69 231 -90 331 -25 114 -33 158 -41 224 -8 63 -18 99 -25 91z"/>
<path d="M4265 2460 c-109 -24 -187 -111 -246 -271 -43 -118 -58 -216 -55
-364 3 -143 21 -238 61 -313 70 -133 155 -164 279 -103 158 78 257 277 260
526 2 181 -18 280 -79 390 -60 109 -134 154 -220 135z m69 -155 c100 -48 164
-316 126 -526 -37 -201 -151 -323 -254 -274 -111 53 -156 353 -91 605 32 125
96 199 178 209 5 1 23 -6 41 -14z"/>
<path d="M36 2397 c3 -10 9 -15 12 -12 3 3 0 11 -7 18 -10 9 -11 8 -5 -6z"/>
<path d="M55 2302 c0 -10 4 -22 7 -27 3 -6 4 -18 2 -28 -1 -11 0 -16 4 -13 10
10 11 35 2 41 -5 3 -7 12 -4 19 3 8 1 16 -4 20 -5 3 -8 -3 -7 -12z"/>
<path d="M5417 2188 c-28 -67 -55 -138 -51 -138 3 0 0 -8 -5 -17 -8 -17 -98
-349 -108 -402 -2 -14 -6 -28 -9 -33 -3 -4 -1 -8 4 -8 4 0 18 18 30 40 12 23
17 38 12 35 -13 -8 -5 30 37 185 64 234 83 288 90 258 2 -9 -1 -43 -6 -74 -14
-73 -7 -82 9 -12 27 121 30 178 11 178 -5 0 -11 -6 -14 -12z"/>
<path d="M92 2155 c1 -16 6 -35 10 -41 4 -6 9 -25 11 -42 2 -18 7 -35 10 -39
12 -12 7 21 -13 87 -11 38 -19 52 -18 35z"/>
<path d="M3448 2152 c-26 -9 -49 -19 -51 -22 -3 -3 -8 -27 -11 -54 -18 -130
-84 -205 -230 -261 -33 -13 -61 -27 -60 -32 1 -4 7 -29 14 -55 11 -44 13 -46
39 -38 14 5 79 25 145 45 65 20 120 34 123 32 2 -3 6 -17 9 -33 3 -16 25 -132
49 -259 24 -126 47 -248 52 -270 4 -22 8 -43 9 -47 1 -5 2 -17 3 -27 1 -19 4
-19 76 6 l76 25 -6 37 c-3 20 -15 95 -25 166 -32 212 -83 518 -104 632 -2 10
-10 53 -17 96 -14 86 -14 86 -91 59z"/>
<path d="M132 2010 c0 -8 4 -26 8 -40 6 -20 8 -21 8 -5 0 11 -3 29 -8 40 -5
12 -8 14 -8 5z"/>
<path d="M5237 1953 c-8 -10 -19 -31 -23 -48 -12 -52 -52 -131 -83 -167 -16
-19 -33 -47 -37 -64 l-7 -29 40 38 c21 20 41 37 44 37 9 0 -48 -231 -75 -305
l-24 -67 22 21 c18 17 62 117 72 166 2 6 14 55 28 109 25 96 67 318 62 323 -2
2 -10 -5 -19 -14z"/>
<path d="M151 1925 c0 -11 4 -29 9 -40 l9 -20 0 20 c0 11 -4 29 -9 40 l-9 20
0 -20z"/>
<path d="M5381 1913 c-1 -6 -4 -20 -7 -30 -5 -17 -5 -17 6 0 6 10 9 23 6 30
-3 9 -5 9 -5 0z"/>
<path d="M2309 1866 c-2 -2 -21 -6 -41 -9 -85 -11 -173 -93 -196 -182 -46
-176 17 -412 155 -582 55 -67 69 -80 143 -132 90 -61 152 -82 246 -82 311 0
412 297 222 653 -39 74 -159 203 -234 253 -70 47 -151 75 -229 81 -34 2 -63 3
-66 0z m179 -176 c204 -103 358 -457 273 -632 -38 -79 -138 -109 -240 -73
-224 79 -400 507 -279 678 45 64 149 75 246 27z"/>
<path d="M1523 1743 l-31 -4 5 -58 c9 -92 -22 -136 -106 -155 l-48 -11 21 -45
22 -45 101 3 102 3 90 -178 c88 -173 105 -204 185 -345 l38 -68 59 0 c32 0 59
3 59 7 0 3 -27 54 -59 112 -115 206 -235 458 -334 701 -37 89 -40 91 -104 83z"/>
<path d="M295 1658 c33 -152 199 -444 323 -565 41 -40 53 -42 43 -5 -17 58
-242 465 -307 555 -41 57 -69 64 -59 15z m73 -75 c54 -77 248 -440 240 -449
-16 -15 -125 136 -197 271 -35 67 -81 179 -81 200 0 14 21 2 38 -22z"/>
<path d="M837 1672 c-87 -53 -30 -303 121 -531 57 -86 199 -223 265 -255 78
-38 133 -41 165 -9 22 22 24 31 19 82 -14 163 -230 524 -400 668 -58 49 -131
69 -170 45z m131 -116 c49 -26 144 -139 203 -241 164 -288 182 -428 45 -366
-120 54 -287 299 -330 481 -28 117 5 166 82 126z"/>
<path d="M534 1622 c14 -52 6 -92 -19 -92 -20 0 -19 -8 5 -47 14 -24 27 -33
47 -33 40 0 46 -7 83 -80 50 -99 116 -215 182 -317 43 -67 67 -94 89 -102 28
-10 29 -9 18 12 -7 12 -29 47 -49 77 -89 133 -234 409 -300 573 -19 45 -28 57
-46 57 -22 0 -22 -1 -10 -48z"/>
<path d="M4865 1631 c-105 -48 -211 -221 -266 -435 -36 -138 -24 -236 28 -236
71 0 217 156 283 303 75 167 82 355 15 381 -20 7 -13 9 -60 -13z m35 -112 c14
-26 12 -105 -6 -179 -29 -127 -146 -300 -201 -300 -36 0 -45 31 -34 115 23
162 101 331 173 375 34 20 53 17 68 -11z"/>
<path d="M4354 1318 c-33 -16 -43 -29 -58 -70 -22 -62 -93 -136 -165 -172 -46
-24 -51 -29 -51 -61 l0 -34 90 44 c49 25 94 45 99 45 5 0 8 -10 6 -22 -2 -13
-7 -59 -10 -103 -8 -88 -10 -105 -20 -184 l-7 -53 49 27 c54 31 52 27 79 210
3 22 7 50 9 62 6 38 25 335 21 332 -1 0 -19 -9 -42 -21z"/>
<path d="M5075 1306 c-6 -7 -44 -58 -85 -112 -134 -175 -240 -341 -167 -259
20 22 36 46 37 53 0 7 5 10 10 7 6 -4 9 -1 8 6 -2 7 2 13 9 14 6 0 15 4 20 9
5 6 2 6 -6 1 -22 -13 -9 13 45 92 55 79 94 124 104 118 10 -6 44 59 39 73 -3
9 -7 8 -14 -2z"/>
<path d="M3521 970 c-85 -29 -128 -55 -180 -109 -119 -126 -114 -327 11 -404
84 -52 195 -51 313 2 217 99 291 347 141 478 -70 62 -166 73 -285 33z m177
-97 c85 -63 102 -191 40 -291 -44 -71 -155 -122 -233 -108 -79 15 -139 111
-130 206 4 42 33 113 57 140 72 82 195 106 266 53z"/>
<path d="M906 871 c-28 -45 160 -248 340 -368 164 -110 225 -111 125 -1 -152
166 -315 309 -403 354 -53 27 -55 27 -62 15z m161 -113 c59 -45 283 -273 283
-288 0 -30 -164 78 -259 172 -65 64 -121 138 -121 158 0 19 41 1 97 -42z"/>
<path d="M2815 795 c-5 -2 -27 -6 -47 -10 -29 -4 -38 -11 -38 -26 0 -60 -66
-111 -162 -124 -27 -4 -48 -9 -48 -11 0 -3 7 -16 16 -30 13 -19 23 -24 43 -20
14 3 53 8 86 11 33 3 71 8 85 11 23 4 29 -3 65 -73 22 -43 60 -113 84 -156 48
-86 35 -80 130 -61 l29 5 -53 112 c-28 62 -78 172 -110 245 -32 72 -60 132
-64 131 -3 0 -10 -2 -16 -4z"/>
<path d="M1380 748 c0 -7 4 -19 9 -27 16 -25 1 -41 -40 -41 -77 0 -32 -44 64
-62 68 -13 69 -13 144 -96 77 -85 170 -176 201 -198 9 -6 33 -15 52 -19 33 -7
30 -2 -67 96 -96 98 -186 201 -243 279 -42 58 -68 80 -95 80 -14 0 -25 -6 -25
-12z"/>
<path d="M1890 720 c-53 -9 -79 -27 -88 -63 -17 -62 13 -136 87 -215 60 -63
100 -93 186 -135 92 -45 155 -61 240 -61 155 0 188 79 90 213 -117 158 -368
286 -515 261z m203 -99 c44 -19 142 -93 184 -140 31 -35 73 -104 78 -130 2
-11 -5 -31 -15 -43 -15 -19 -27 -23 -77 -21 -114 2 -268 103 -334 217 -40 71
-36 121 11 140 24 9 106 -3 153 -23z"/>
<path d="M4273 666 c-73 -34 -163 -98 -212 -148 -48 -51 -95 -133 -87 -153 26
-70 348 123 417 250 39 71 -19 96 -118 51z m53 -49 c16 -42 -85 -153 -180
-200 -99 -48 -123 -28 -65 54 77 109 225 197 245 146z"/>
<path d="M3713 420 c-23 -10 -46 -27 -52 -37 -11 -23 -89 -66 -148 -83 -25 -8
-40 -17 -37 -25 4 -9 24 -7 82 11 42 13 83 24 90 24 8 0 12 -18 12 -56 0 -53
1 -55 23 -48 54 17 65 24 69 48 6 29 11 186 6 185 -2 0 -22 -9 -45 -19z"/>
<path d="M1775 262 c-20 -20 14 -45 128 -96 69 -30 75 -26 9 8 -27 13 -54 32
-61 40 -12 14 -10 16 13 16 65 0 351 -124 325 -141 -10 -6 -7 -9 11 -10 14 0
35 -2 48 -5 91 -17 -129 100 -283 150 -83 27 -181 47 -190 38z"/>
<path d="M2960 236 c-30 -7 -66 -18 -80 -23 -35 -15 -72 -58 -68 -79 5 -27 61
-61 112 -68 52 -8 186 -6 186 3 0 3 -25 5 -57 4 -83 -2 -143 29 -143 73 0 38
66 64 165 65 84 0 148 -24 160 -62 9 -27 -2 -38 -67 -61 l-53 -19 45 6 c108
13 178 53 165 95 -21 66 -213 100 -365 66z"/>
<path d="M2410 186 c0 -19 -22 -26 -83 -26 -82 -1 -32 -21 65 -27 67 -4 86 -9
123 -34 58 -39 106 -58 155 -62 22 -2 40 -2 40 -1 0 1 -24 16 -53 32 -29 17
-78 53 -109 81 -48 44 -61 51 -97 51 -28 0 -41 -4 -41 -14z"/>
</g>
</svg>
