<?xml version="1.0" encoding="UTF-8" standalone="no"?>
<svg
   xmlns:dc="http://purl.org/dc/elements/1.1/"
   xmlns:cc="http://creativecommons.org/ns#"
   xmlns:rdf="http://www.w3.org/1999/02/22-rdf-syntax-ns#"
   xmlns:svg="http://www.w3.org/2000/svg"
   xmlns="http://www.w3.org/2000/svg"
   xmlns:sodipodi="http://sodipodi.sourceforge.net/DTD/sodipodi-0.dtd"
   xmlns:inkscape="http://www.inkscape.org/namespaces/inkscape"
   width="37.5pt"
   height="37.5pt"
   viewBox="0 0 37.5 37.5"
   version="1.1"
   id="svg22"
   sodipodi:docname="SVGlogo01BallOnly50x50.svg"
   inkscape:version="0.92.1 unknown">
  <metadata
     id="metadata28">
    <rdf:RDF>
      <cc:Work
         rdf:about="">
        <dc:format>image/svg+xml</dc:format>
        <dc:type
           rdf:resource="http://purl.org/dc/dcmitype/StillImage" />
        <dc:title></dc:title>
      </cc:Work>
    </rdf:RDF>
  </metadata>
  <defs
     id="defs26" />
  <sodipodi:namedview
     pagecolor="#ffffff"
     bordercolor="#666666"
     borderopacity="1"
     objecttolerance="10"
     gridtolerance="10"
     guidetolerance="10"
     inkscape:pageopacity="0"
     inkscape:pageshadow="2"
     inkscape:window-width="1855"
     inkscape:window-height="1056"
     id="namedview24"
     showgrid="false"
     inkscape:zoom="1"
     inkscape:cx="235.4767"
     inkscape:cy="30.439667"
     inkscape:window-x="65"
     inkscape:window-y="24"
     inkscape:window-maximized="1"
     inkscape:current-layer="svg22" />
  <g
     id="surface2"
     transform="matrix(0.38258628,0,0,0.37835546,-73.051675,-26.839635)">
    <path
       style="fill:#003f66;fill-opacity:1;fill-rule:evenodd;stroke:none"
       d="m 285.75,140.55078 c 0.23437,-0.40234 0.53516,-1.08594 0.89844,-2.05078 0.33593,-0.89844 0.63672,-1.85156 0.90234,-2.85156 0.26563,-1.09766 0.43359,-1.9336 0.5,-2.5 0.0664,-0.69922 -0.0156,-0.86328 -0.25,-0.5 -0.23437,0.40234 -0.5,1.16797 -0.80078,2.30078 -0.30078,1.0664 -0.60156,2.15234 -0.89844,3.25 -0.26953,1.0664 -0.45312,1.83594 -0.55078,2.30078 -0.10156,0.46484 -0.0352,0.48437 0.19922,0.0508 m -0.39844,1 c -0.36719,0.69922 -0.51953,0.78125 -0.45312,0.25 0.10156,-0.46875 0.33593,-1.40234 0.70312,-2.80078 0.36328,-1.5 0.75,-2.96484 1.14844,-4.39844 0.46484,-1.60156 0.88281,-2.70312 1.25,-3.30078 0.33203,-0.53516 0.48437,-0.36719 0.44922,0.5 -0.0312,0.73438 -0.23438,1.78125 -0.59766,3.14844 -0.36719,1.33594 -0.76953,2.5664 -1.20312,3.69922 -0.5,1.26953 -0.9336,2.23437 -1.29688,2.90234 m -2.80078,4.05078 c -0.26562,0.33203 -0.55078,0.66406 -0.85156,1 0.83594,-2.10156 1.5,-4.46875 2,-7.10156 -0.5,0.56641 -1.05078,1.11719 -1.64844,1.64844 0.0977,-0.36328 0.16406,-0.76563 0.19922,-1.19922 0.63281,-0.53125 1.08203,-1.08203 1.35156,-1.64844 0.36328,-0.63281 0.66406,-1.48437 0.89844,-2.55078 0.19922,-0.23438 0.39844,-0.44922 0.60156,-0.64844 -0.5,4 -1.35156,7.5 -2.55078,10.5 m -6.90234,6.04688 c 0.66797,-0.5 1.28515,-1.28125 1.85156,-2.34766 0.53516,-0.96875 0.93359,-2 1.19922,-3.10156 0.23437,-1.19922 0.25,-2.11719 0.0508,-2.75 -0.23438,-0.69922 -0.69922,-0.80078 -1.39844,-0.30078 -0.70312,0.5 -1.33594,1.41797 -1.90234,2.75 -0.53125,1.20312 -0.89844,2.38672 -1.09766,3.55078 -0.20312,1.10156 -0.20312,1.86719 0,2.30078 0.19922,0.43359 0.63281,0.39844 1.29688,-0.10156 m -0.29688,1 c -1.03515,0.76953 -1.75,0.93359 -2.15234,0.5 -0.39844,-0.4336 -0.48438,-1.36328 -0.25,-2.79688 0.26562,-1.53515 0.76562,-3.11719 1.5,-4.75 0.90234,-1.86719 1.91797,-3.21875 3.05078,-4.05078 1.13281,-0.76562 1.88281,-0.68359 2.25,0.25 0.33203,0.76563 0.33203,1.93359 0,3.5 -0.33203,1.43359 -0.88281,2.80078 -1.64844,4.09766 -0.83594,1.36718 -1.75,2.45312 -2.75,3.25 M 245.5,165.10156 c -0.69922,0.0977 -1.39844,0.21485 -2.10156,0.34766 -0.89844,-1.53125 -1.88282,-3.38281 -2.94922,-5.55078 -1.39844,0.20312 -2.76563,0.36718 -4.09766,0.5 -0.23437,-0.33203 -0.43359,-0.66407 -0.60156,-1 1.43359,-0.13282 2.41797,-0.39844 2.94922,-0.79688 0.66797,-0.36719 0.96875,-1.01953 0.90234,-1.95312 0.63281,-0.13282 1.28125,-0.25 1.94922,-0.34766 1.5,3.59766 2.81641,6.53125 3.94922,8.80078 m -21.69922,0.25 c -0.5,-0.10156 -1,-0.20312 -1.5,-0.30078 -1.69922,-1.40234 -3.41797,-3.15234 -5.15234,-5.25 -0.89844,-0.13281 -1.75,-0.30078 -2.54688,-0.5 -0.23437,-0.33594 -0.48437,-0.65234 -0.75,-0.94922 0.79688,0.19922 1.31641,0.21485 1.54688,0.0469 0.26953,-0.19922 0.21875,-0.6836 -0.14844,-1.44922 0.39844,0.0664 0.80078,0.13281 1.19922,0.19922 2.5,3.40234 4.94922,6.13672 7.35156,8.20312 M 214.25,162.25 c 0.53516,0.23437 0.64844,0.14844 0.35156,-0.25 -0.23437,-0.39844 -0.75,-1 -1.55078,-1.80078 -0.83594,-0.86719 -1.66797,-1.6836 -2.5,-2.44922 -0.96875,-0.86719 -1.69922,-1.39844 -2.19922,-1.60156 -0.5,-0.16407 -0.58594,0.0508 -0.25,0.65234 0.33203,0.53125 0.88281,1.21484 1.64844,2.05078 0.80078,0.79688 1.60156,1.48047 2.39844,2.04688 0.86718,0.66797 1.5664,1.11718 2.10156,1.35156 m 0.85156,0.69922 c -0.80078,-0.36719 -1.80078,-0.98438 -3,-1.84766 -1.10156,-0.76953 -2.15234,-1.65234 -3.15234,-2.65234 -1.03125,-1.09766 -1.71485,-1.98438 -2.05078,-2.64844 -0.4336,-0.80078 -0.25,-1.06641 0.55078,-0.80078 0.76562,0.30078 1.85156,1.05078 3.25,2.25 1.23437,1.10156 2.38281,2.19922 3.44922,3.30078 1.03515,1.06641 1.66797,1.81641 1.90234,2.25 0.19922,0.46484 -0.11719,0.51563 -0.94922,0.14844 m 72.09766,-50.64844 c 0.19922,-0.13281 0.25,-0.78515 0.15234,-1.94922 -0.13672,-1.0664 -0.40234,-2.30078 -0.80078,-3.70312 -0.46875,-1.4336 -0.91797,-2.63281 -1.35156,-3.59766 -0.56641,-1.10156 -0.98438,-1.66797 -1.25,-1.69922 -0.30078,-0.0352 -0.31641,0.51563 -0.0508,1.64844 0.20312,1.06641 0.53515,2.36719 1,3.89844 0.46875,1.60156 0.88672,2.90234 1.25,3.90234 0.46875,1.13281 0.8164,1.63281 1.05078,1.5 M 287.5,114 c -0.36719,0.23438 -0.85156,-0.36719 -1.44922,-1.80078 -0.56641,-1.33203 -1.15234,-3.05078 -1.75,-5.14844 -0.63281,-2.10156 -1.06641,-3.83594 -1.30078,-5.19922 -0.26563,-1.46875 -0.16797,-2.152341 0.30078,-2.050779 0.46484,0.06641 1.06641,0.816409 1.80078,2.249999 0.66406,1.23438 1.25,2.75 1.75,4.55078 0.53125,1.79688 0.86328,3.38282 1,4.75 0.0977,1.53125 -0.0195,2.41407 -0.35156,2.64844 m -3.10156,1.19922 c -0.29688,0.13281 -0.59766,0.28516 -0.89844,0.44922 -0.69922,-3.96485 -1.71484,-7.84766 -3.05078,-11.64844 -0.59766,0.0664 -1.23438,0.13281 -1.89844,0.19922 -0.23437,-0.53125 -0.43359,-1.08203 -0.60156,-1.64844 0.66797,-0.0352 1.08594,-0.26562 1.25,-0.69922 0.16797,-0.46875 0.0859,-1.26953 -0.25,-2.402341 0.26562,0.03516 0.53515,0.05078 0.80078,0.05078 2.10156,5.035161 3.64844,10.265631 4.64844,15.699221 m -16.75,6.94922 c -0.76563,0.30078 -1.53125,0.58594 -2.29688,0.85156 -1.03515,-5.43359 -2.45312,-10.78516 -4.25,-16.05078 -1.43359,0.23437 -2.91797,0.5 -4.45312,0.80078 -0.26563,-0.73437 -0.53125,-1.48437 -0.79688,-2.25 1.56641,-0.26562 2.61328,-0.71484 3.14844,-1.35156 0.56641,-0.69922 0.71484,-1.83203 0.44922,-3.39844 0.63281,-0.0664 1.25,-0.13281 1.85156,-0.19922 1.36719,3.39844 2.59766,6.91406 3.69922,10.55078 1.06641,3.63282 1.94922,7.31641 2.64844,11.04688 M 232.75,132.85156 c -1.06641,0.19922 -2.11719,0.39844 -3.14844,0.59766 -1.96875,-5.73438 -3.5664,-11.58203 -4.80078,-17.55078 -1.66797,0.5664 -3.26562,1.11719 -4.80078,1.65234 -0.13281,-0.76562 -0.28516,-1.53515 -0.44922,-2.30078 1.59766,-0.60156 2.73438,-1.33203 3.39844,-2.19922 0.80078,-0.96875 1.25,-2.36719 1.35156,-4.19922 0.73438,-0.30078 1.48438,-0.5664 2.25,-0.80078 0.73438,3.96485 1.59766,8.05078 2.59766,12.25 1,4.19922 2.20312,8.38281 3.60156,12.55078 M 206.19922,137.25 c -0.5,0.0664 -0.98438,0.13281 -1.44922,0.19922 -1.5,-4.19922 -2.66797,-8.48438 -3.5,-12.84766 -0.73438,0.29688 -1.43359,0.58203 -2.10156,0.84766 -0.0977,-0.56641 -0.19922,-1.13281 -0.29688,-1.69922 0.66406,-0.33203 1.13281,-0.80078 1.39844,-1.39844 0.36719,-0.70312 0.53516,-1.76953 0.5,-3.20312 0.33203,-0.16406 0.66797,-0.34766 1,-0.54688 0.80078,6.33203 2.28516,12.54688 4.44922,18.64844 m -8.25,-0.60156 c 0.40234,-0.0312 0.51562,-0.71485 0.35156,-2.04688 -0.13281,-1.23437 -0.41797,-2.71875 -0.85156,-4.45312 -0.39844,-1.76563 -0.81641,-3.1836 -1.25,-4.25 -0.46485,-1.19922 -0.88281,-1.6836 -1.25,-1.44922 -0.33203,0.19922 -0.48438,0.96875 -0.44922,2.30078 0.0352,1.23438 0.23437,2.63281 0.60156,4.19922 0.39844,1.60156 0.84766,2.93359 1.34766,4 0.60156,1.16797 1.10156,1.73437 1.5,1.69922 m 0.60156,1.80078 c -0.63281,0.0352 -1.35156,-0.71485 -2.15234,-2.25 -0.73047,-1.33203 -1.34766,-3.01563 -1.84766,-5.05078 -0.46875,-2.03125 -0.69922,-3.81641 -0.69922,-5.34766 0.0312,-1.76562 0.31641,-2.83594 0.84766,-3.19922 0.5664,-0.40234 1.18359,0.14844 1.85156,1.64844 0.59766,1.46484 1.18359,3.35156 1.75,5.64844 0.56641,2.36718 0.91406,4.35156 1.05078,5.95312 0.13281,1.69922 -0.13672,2.56641 -0.80078,2.59766 M 195.44922,138 c -0.16406,0 -0.31641,0 -0.44922,0 -1.06641,-3 -1.89844,-6.06641 -2.5,-9.19922 -0.19922,0.0977 -0.36719,0.21484 -0.5,0.34766 -0.0664,-0.4336 -0.13281,-0.84766 -0.19922,-1.25 0.13281,-0.13281 0.21484,-0.39844 0.25,-0.79688 0,-0.46875 -0.0352,-1.21875 -0.10156,-2.25 0.10156,-0.0664 0.19922,-0.15234 0.30078,-0.25 0.53516,4.56641 1.60156,9.03125 3.19922,13.39844 m -2.14844,-1.44922 c 0.0312,0.0312 -0.0664,-0.40234 -0.30078,-1.30078 -0.23438,-0.83203 -0.5,-1.86719 -0.80078,-3.10156 -0.33203,-1.26563 -0.56641,-2.31641 -0.69922,-3.14844 -0.19922,-0.86719 -0.30078,-1.26562 -0.30078,-1.19922 0,0.0977 0.0664,0.61719 0.19922,1.55078 0.16797,0.83203 0.38672,1.81641 0.65234,2.94922 0.26563,1.13281 0.53125,2.08203 0.80078,2.84766 0.26563,0.90234 0.41406,1.36718 0.44922,1.40234 m 0.44922,1.30078 C 193.6836,137.75 193.46484,137.13281 193.10156,136 c -0.33594,-1.03516 -0.66797,-2.26563 -1,-3.69922 -0.33594,-1.43359 -0.60156,-2.68359 -0.80078,-3.75 C 191.10156,127.35156 191,126.66797 191,126.5 c 0,-0.19922 0.11719,0.28516 0.35156,1.44922 0.23047,1.10156 0.54688,2.46875 0.94922,4.10156 0.39844,1.69922 0.76563,3.08203 1.09766,4.14844 0.30078,1.19922 0.41797,1.75 0.35156,1.65234 M 259.44922,80.398438 C 260.28516,80.5 260.63281,80.214844 260.5,79.550781 260.36719,79.015625 259.91797,78.367188 259.14844,77.601562 258.38281,76.867188 257.55078,76.25 256.64844,75.75 255.68359,75.214844 254.80078,74.898438 254,74.800781 c -0.80078,-0.101562 -1.19922,0.05078 -1.19922,0.449219 0.0312,0.398438 0.38281,0.964844 1.05078,1.699219 0.73047,0.765625 1.59766,1.484375 2.59766,2.152343 1.10156,0.765626 2.10156,1.199219 3,1.296876 M 260.35156,81.5 c -1.40234,-0.132812 -2.91797,-0.714844 -4.55078,-1.75 -1.43359,-0.933594 -2.61719,-1.917969 -3.55078,-2.949219 -0.86719,-0.933593 -1.23438,-1.632812 -1.10156,-2.101562 0.13672,-0.464844 0.83593,-0.617188 2.10156,-0.449219 1.19922,0.132812 2.48437,0.550781 3.85156,1.25 1.29688,0.632812 2.4336,1.417969 3.39844,2.351562 1.06641,1 1.63281,1.863282 1.69922,2.597657 0.10156,0.867187 -0.51563,1.21875 -1.84766,1.050781 m -25.90234,0.351562 c 1.19922,-0.269531 1.98437,-0.835937 2.35156,-1.703124 0.30078,-0.765626 0.25,-1.566407 -0.15234,-2.398438 -0.36328,-0.765625 -0.94922,-1.316406 -1.75,-1.648438 -0.83203,-0.367187 -1.75,-0.453124 -2.75,-0.25 -1,0.230469 -1.73047,0.664063 -2.19922,1.296876 -0.39844,0.636718 -0.48438,1.335937 -0.25,2.101562 0.23437,0.867188 0.73437,1.566406 1.5,2.101562 0.96875,0.597657 2.05078,0.765626 3.25,0.5 m 0.44922,1.199219 c -1.9336,0.433594 -3.61328,0.265625 -5.04688,-0.5 -1.16797,-0.667969 -1.88672,-1.585937 -2.15234,-2.75 -0.23438,-1.035156 0,-1.949219 0.69922,-2.75 0.76953,-0.867187 1.91797,-1.46875 3.45312,-1.800781 1.56641,-0.332031 2.96485,-0.285156 4.19922,0.148438 1.16406,0.402343 2.03125,1.085937 2.59766,2.050781 0.5664,1.101562 0.60156,2.152343 0.10156,3.152343 -0.63281,1.230469 -1.91797,2.046876 -3.85156,2.449219 m -11.75,3.050781 c -0.76563,0.265626 -1.53125,0.566407 -2.29688,0.898438 -0.20312,-2.464844 -0.28515,-4.617188 -0.25,-6.449219 C 219.43359,81.015625 218.31641,81.5 217.25,82 c 0,-0.265625 0.0156,-0.515625 0.0508,-0.75 1.09766,-0.464844 1.93359,-0.898438 2.5,-1.300781 0.59766,-0.433594 1.03125,-0.914063 1.30078,-1.449219 0.46485,-0.199219 0.94922,-0.382812 1.44922,-0.550781 0,2.101562 0.19922,4.816406 0.59766,8.152343 M 201.80078,97.75 c -0.43359,0.332031 -0.85156,0.667969 -1.25,1 0.43359,-2.699219 1.03125,-5.117188 1.80078,-7.25 -0.63672,0.566406 -1.25,1.148438 -1.85156,1.75 0.10156,-0.300781 0.21484,-0.582031 0.35156,-0.851562 0.56641,-0.597657 1.04688,-1.132813 1.44922,-1.597657 0.43359,-0.566406 0.84766,-1.183593 1.25,-1.851562 0.26563,-0.265625 0.55078,-0.515625 0.84766,-0.75 -1.13282,2.566406 -2,5.75 -2.59766,9.550781 m -6.5,5.5 c 0.33203,-0.43359 0.71484,-1.23437 1.14844,-2.39844 0.40234,-1.066404 0.76562,-2.117185 1.10156,-3.152341 0.33203,-1 0.51563,-1.699219 0.55078,-2.097657 0.0664,-0.402343 -0.0664,-0.367187 -0.40234,0.09766 -0.36719,0.46875 -0.76563,1.167969 -1.19922,2.101562 -0.43359,0.898438 -0.81641,1.832031 -1.14844,2.800776 -0.30078,1.03125 -0.46875,1.81641 -0.5,2.34766 -0.0352,0.63281 0.11328,0.73437 0.44922,0.30078 m -0.25,1.35156 c -0.53516,0.63282 -0.80078,0.56641 -0.80078,-0.20312 0,-0.66406 0.21484,-1.66406 0.64844,-3 0.40234,-1.29688 0.88672,-2.515625 1.45312,-3.648437 0.63281,-1.265625 1.21485,-2.25 1.75,-2.949219 0.53125,-0.734375 0.79688,-0.902343 0.79688,-0.5 0,0.433594 -0.19922,1.28125 -0.59766,2.550781 -0.43359,1.398438 -0.93359,2.816407 -1.5,4.249995 -0.63281,1.63282 -1.21875,2.79688 -1.75,3.5 m 82.75,48.69922 c 0.39844,-0.43359 0.86719,-0.98437 1.39844,-1.65234 0.5,-0.63282 0.94922,-1.25 1.35156,-1.84766 0.46484,-0.66797 0.73438,-1.13281 0.80078,-1.40234 0.0977,-0.29688 -0.0508,-0.21485 -0.45312,0.25 -0.4336,0.46875 -0.91407,1.13672 -1.44922,2 -0.53125,0.76953 -1,1.46875 -1.39844,2.10156 -0.40234,0.56641 -0.63281,0.91797 -0.69922,1.05078 -0.10156,0.0977 0.0469,-0.0664 0.44922,-0.5 m -0.5,0.5 c -0.60156,0.69922 -0.88281,1.01563 -0.85156,0.94922 0,-0.0352 0.25,-0.43359 0.75,-1.19922 0.5664,-0.80078 1.19922,-1.73437 1.90234,-2.80078 0.83203,-1.23438 1.56641,-2.23438 2.19922,-3 0.63281,-0.73438 0.91406,-0.91797 0.84766,-0.55078 -0.0664,0.33594 -0.39844,0.91797 -1,1.75 -0.53125,0.83594 -1.14844,1.65234 -1.84766,2.44922 -0.73437,0.93359 -1.40234,1.73437 -2,2.40234 m -12.19922,9.39844 c 0.69922,-0.36719 1.33203,-0.80078 1.89844,-1.30078 0.56641,-0.5 0.96484,-0.98047 1.19922,-1.44922 0.26562,-0.5 0.28515,-0.84766 0.0508,-1.05078 -0.30078,-0.23047 -0.85156,-0.13282 -1.64844,0.30078 -0.80078,0.43359 -1.5,1 -2.10156,1.69922 -0.53516,0.60156 -0.88281,1.13672 -1.05078,1.60156 -0.16406,0.43359 -0.11719,0.66797 0.15234,0.69922 0.29688,0.0664 0.79688,-0.0977 1.5,-0.5 m -0.25,0.35156 c -1.0664,0.56641 -1.85156,0.86719 -2.35156,0.89844 -0.5,0 -0.66797,-0.25 -0.5,-0.75 0.16797,-0.63281 0.63281,-1.36719 1.39844,-2.19922 0.93359,-1 2.0664,-1.85156 3.40234,-2.55078 1.30078,-0.69922 2.18359,-0.91406 2.64844,-0.64844 0.40234,0.23438 0.40234,0.69922 0,1.39844 -0.33203,0.63281 -0.89844,1.28515 -1.69922,1.94922 -0.86719,0.70312 -1.83203,1.33593 -2.89844,1.90234 m -6.95312,3.05078 c -0.53125,0.19922 -1.06641,0.38281 -1.59766,0.54688 0.0664,-0.5 0.0664,-1.21485 0,-2.14844 -1.06641,0.33203 -2.13281,0.64844 -3.19922,0.94922 -0.0352,-0.13281 -0.0859,-0.26563 -0.15234,-0.39844 1.16797,-0.33594 2,-0.65234 2.5,-0.94922 0.60156,-0.33594 1.01562,-0.75 1.25,-1.25 0.5,-0.16797 0.98437,-0.35156 1.44922,-0.55078 0.0664,1.73438 -0.0156,3 -0.25,3.80078 m -11.19922,2.69922 c 0.83594,-0.13281 1.41797,-0.31641 1.75,-0.55078 0.33594,-0.26563 0.41797,-0.55078 0.25,-0.85156 -0.19922,-0.36328 -0.63281,-0.64844 -1.30078,-0.84766 -0.76563,-0.26562 -1.63282,-0.31641 -2.59766,-0.15234 -0.96875,0.13672 -1.60156,0.40234 -1.90234,0.80078 -0.23047,0.36719 -0.1836,0.71875 0.15234,1.05078 0.30078,0.30078 0.76563,0.5 1.39844,0.60156 0.69922,0.0977 1.44922,0.082 2.25,-0.0508 m 0.25,0.14844 c -1.26563,0.19922 -2.39844,0.25 -3.39844,0.15234 -0.93359,-0.10156 -1.63281,-0.33594 -2.10156,-0.70312 -0.5,-0.4336 -0.53125,-0.89844 -0.0977,-1.39844 0.46485,-0.56641 1.5,-0.96484 3.09766,-1.19922 1.5664,-0.23437 2.91797,-0.18359 4.05078,0.14844 1,0.26562 1.60156,0.63281 1.80078,1.10156 0.19922,0.39844 0.0156,0.76563 -0.55078,1.09766 -0.60156,0.36718 -1.53516,0.63672 -2.80078,0.80078 m -7.55078,0.60156 c -0.53125,0 -1.04688,-0.0156 -1.54688,-0.0508 -0.93359,-0.30078 -1.91797,-0.85156 -2.95312,-1.64844 -1,-0.0352 -1.98047,-0.0859 -2.94922,-0.15234 -0.19922,-0.13281 -0.38281,-0.26563 -0.55078,-0.39844 1,0.0664 1.68359,0.0508 2.05078,-0.0508 0.40234,-0.10156 0.55078,-0.31641 0.44922,-0.64844 0.46875,0 0.93359,0 1.40234,0 1.46484,1.46485 2.83203,2.44922 4.09766,2.94922 m -10.29688,-1.10156 c 0.66406,0.16797 0.98047,0.19922 0.94922,0.10156 0,-0.10156 -0.28516,-0.30078 -0.85156,-0.60156 -0.63281,-0.30078 -1.34766,-0.63281 -2.14844,-1 -0.96875,-0.4336 -1.80078,-0.71485 -2.5,-0.84766 -0.73437,-0.13672 -1.03516,-0.0859 -0.90234,0.14844 0.13672,0.19922 0.53515,0.46484 1.20312,0.80078 0.63281,0.33203 1.31641,0.61719 2.04688,0.84766 0.83593,0.23437 1.5664,0.41797 2.20312,0.55078 m 0.59766,0.19922 c -0.96485,-0.19922 -2.01563,-0.46485 -3.14844,-0.79688 -1.06641,-0.33594 -2.01562,-0.70312 -2.85156,-1.10156 -0.89844,-0.43359 -1.38281,-0.78516 -1.44922,-1.05078 -0.13281,-0.33203 0.36719,-0.38281 1.5,-0.14844 1.16797,0.23438 2.43359,0.63281 3.80078,1.19922 1.23438,0.5 2.21484,0.96484 2.94922,1.39844 0.73437,0.40234 1.05078,0.63672 0.94922,0.70312 -0.13281,0.0664 -0.71485,0 -1.75,-0.20312 M 288.75,128.35156 c -0.13281,0.23047 -0.26563,0.44922 -0.39844,0.64844 0.26563,-2.89844 0.28125,-5.93359 0.0469,-9.10156 -0.23047,0.30078 -0.51563,0.58594 -0.84766,0.85156 -0.0352,-0.46484 -0.0664,-0.93359 -0.10156,-1.39844 0.30078,-0.30078 0.5,-0.68359 0.60156,-1.15234 0.0977,-0.5 0.11719,-1.30078 0.0508,-2.39844 0.0977,-0.0664 0.19922,-0.15234 0.29688,-0.25 0.60156,4.46485 0.71875,8.73438 0.35156,12.80078 m -4,3.89844 c 0.43359,-0.39844 0.78516,-1.28516 1.05078,-2.64844 0.23438,-1.23437 0.33203,-2.61718 0.30078,-4.15234 -0.0351,-1.63281 -0.20312,-2.93359 -0.5,-3.89844 -0.36719,-1.13281 -0.76953,-1.55078 -1.20312,-1.25 -0.4336,0.26563 -0.73047,1.16406 -0.89844,2.69922 -0.13281,1.39844 -0.16797,2.94922 -0.10156,4.64844 0.0351,1.70312 0.15234,2.98437 0.35156,3.85156 0.26562,0.89844 0.60156,1.14844 1,0.75 m -0.10156,1.64844 c -0.66407,0.66797 -1.19922,0.45312 -1.59766,-0.64844 -0.36719,-1.06641 -0.56641,-2.69922 -0.60156,-4.89844 -0.0977,-2.26953 -0.0156,-4.35156 0.25,-6.25 0.26562,-2.10156 0.75,-3.35156 1.44922,-3.75 0.66797,-0.36718 1.26953,0.16407 1.80078,1.59766 0.46875,1.26562 0.73437,2.90234 0.80078,4.90234 0.0664,2 -0.10156,3.78125 -0.5,5.34766 -0.39844,1.80078 -0.93359,3.03515 -1.60156,3.69922 m -5.04688,3.90234 c -0.43359,0.33203 -0.90234,0.66406 -1.40234,1 0.23437,-3.56641 0.18359,-7.41797 -0.14844,-11.55078 -0.86719,0.5 -1.78516,1 -2.75,1.5 -0.0352,-0.60156 -0.0859,-1.21484 -0.15234,-1.85156 1,-0.5 1.66797,-1.09766 2,-1.79688 0.46875,-0.76953 0.68359,-1.90234 0.65234,-3.40234 0.39844,-0.16406 0.76563,-0.34766 1.09766,-0.55078 0.83593,6.03515 1.0664,11.58593 0.70312,16.65234 m -11.65234,5.75 c 1.03515,-0.5 1.83594,-1.56641 2.40234,-3.19922 0.5,-1.5 0.69922,-3.18359 0.59766,-5.05078 -0.16406,-2 -0.56641,-3.60156 -1.19922,-4.80078 -0.80078,-1.39844 -1.76563,-1.85156 -2.89844,-1.35156 -1.13672,0.46875 -1.93359,1.71875 -2.40234,3.75 -0.46485,1.80078 -0.59766,3.70312 -0.39844,5.70312 0.16406,1.9336 0.58203,3.36328 1.25,4.29688 0.73438,0.96875 1.61719,1.18359 2.64844,0.65234 M 268,145.35156 c -1.63281,0.86328 -3.01563,0.71485 -4.14844,-0.45312 -1.0664,-1.09766 -1.73437,-2.88282 -2,-5.34766 -0.30078,-2.66797 -0.0664,-5.21875 0.69922,-7.65234 0.83203,-2.76563 2.14844,-4.53125 3.94922,-5.29688 1.73437,-0.70312 3.19922,-0.15234 4.39844,1.64844 1.03515,1.53516 1.61718,3.58203 1.75,6.14844 0.13672,2.43359 -0.1836,4.61718 -0.94922,6.55078 -0.86719,2.13281 -2.09766,3.60156 -3.69922,4.40234 M 238,153.25 c 1.33203,-0.19922 2.16797,-0.98438 2.5,-2.35156 0.33203,-1.26563 0.18359,-2.78125 -0.44922,-4.54688 -0.69922,-1.93359 -1.68359,-3.53515 -2.94922,-4.80078 -1.53515,-1.46875 -3.05078,-2.08594 -4.55078,-1.85156 -1.46875,0.26562 -2.28516,1.26562 -2.44922,3 -0.20312,1.53515 0.13281,3.23437 1,5.10156 0.76563,1.76563 1.75,3.14844 2.94922,4.14844 1.30078,1.0664 2.61719,1.5 3.94922,1.30078 m 0.69922,1.60156 c -2,0.29688 -3.9336,-0.21875 -5.80078,-1.55078 -1.76563,-1.23437 -3.16407,-2.98437 -4.19922,-5.25 -1.13281,-2.43359 -1.51563,-4.65234 -1.14844,-6.65234 0.36719,-2.39844 1.71484,-3.81641 4.05078,-4.25 2.4336,-0.39844 4.76563,0.38672 7,2.35156 1.96485,1.66797 3.33203,3.75 4.09766,6.25 0.76562,2.33203 0.8164,4.33203 0.15234,6 -0.70312,1.73437 -2.08594,2.76562 -4.15234,3.10156 m -11.75,0.69922 c -0.76563,0.0312 -1.51563,0.0508 -2.25,0.0508 -1.86719,-3.16797 -3.75,-6.73437 -5.64844,-10.70312 -1.26562,0.10156 -2.48437,0.16797 -3.65234,0.20312 -0.26563,-0.5664 -0.53125,-1.15234 -0.79688,-1.75 1.19922,-0.0664 2,-0.36719 2.39844,-0.90234 0.5,-0.56641 0.60156,-1.58203 0.30078,-3.05078 0.56641,-0.0664 1.14844,-0.14844 1.75,-0.25 2.53125,6.36718 5.16406,11.83593 7.89844,16.40234 m -13.84766,-1.65234 C 213.86719,153.96484 214.16797,153.5 214,152.5 c -0.16797,-1 -0.66797,-2.26563 -1.5,-3.80078 -0.86719,-1.69922 -1.78516,-3.14844 -2.75,-4.34766 -1.10156,-1.33594 -2.01563,-2 -2.75,-2 -0.69922,0.0312 -0.94922,0.69922 -0.75,2 0.16797,1.13281 0.66797,2.46485 1.5,4 0.80078,1.5 1.66797,2.75 2.60156,3.75 1.06641,1.09766 1.98047,1.69922 2.75,1.79688 m 0.94922,1.40234 c -1.16797,-0.13281 -2.48437,-0.91797 -3.94922,-2.35156 -1.33594,-1.23438 -2.51953,-2.80078 -3.55078,-4.69922 -1.03516,-2 -1.61719,-3.73438 -1.75,-5.19922 -0.19922,-1.69922 0.26563,-2.60156 1.39844,-2.69922 1.13281,-0.0352 2.46875,0.84766 4,2.64844 1.43359,1.63281 2.71875,3.53516 3.85156,5.69922 1.13281,2.10156 1.73438,3.75 1.80078,4.94922 0.0664,1.30078 -0.53515,1.85156 -1.80078,1.65234 m -6.44922,-1.60156 c -0.36719,-0.0977 -0.73437,-0.21485 -1.10156,-0.34766 -1.80078,-2.60156 -3.46484,-5.48437 -5,-8.65234 -0.53516,-0.0664 -1.01563,-0.14844 -1.44922,-0.25 -0.23437,-0.4336 -0.44922,-0.88281 -0.65234,-1.34766 0.46875,0.0977 0.75,-0.0195 0.85156,-0.35156 0.0664,-0.36719 -0.0508,-1.08203 -0.35156,-2.14844 0.23437,0 0.46875,0 0.70312,0 2,4.89844 4.33203,9.26563 7,13.09766 m -6.30078,-3.34766 c 0.26563,0.19922 0.21484,-0.0859 -0.15234,-0.85156 -0.33203,-0.69922 -0.83203,-1.66797 -1.5,-2.89844 -0.69922,-1.23437 -1.31641,-2.33594 -1.84766,-3.30078 -0.63281,-1.06641 -1.06641,-1.63281 -1.30078,-1.69922 -0.19922,-0.0664 -0.13281,0.34766 0.19922,1.25 0.26562,0.79688 0.71875,1.78125 1.35156,2.94922 0.63281,1.13281 1.23438,2.09766 1.80078,2.89844 0.66406,0.93359 1.14844,1.48437 1.44922,1.65234 m 0.80078,1.14844 c -0.46875,-0.30078 -1.13672,-1.03516 -2,-2.19922 -0.80078,-1.10156 -1.60156,-2.35156 -2.40234,-3.75 -0.76563,-1.5 -1.33203,-2.75 -1.69922,-3.75 -0.36719,-1.19922 -0.39844,-1.75 -0.10156,-1.65234 0.36718,0.0664 0.96875,0.8164 1.80078,2.25 0.80078,1.30078 1.65234,2.78515 2.55078,4.45312 0.89844,1.63281 1.55078,2.88281 1.94922,3.75 0.40234,0.9336 0.36719,1.23047 -0.0977,0.89844 m 81,-53.648438 c -0.16797,-0.06641 -0.35156,-0.117187 -0.55078,-0.152343 -1.36719,-2.867188 -2.88281,-5.53125 -4.55078,-8 -0.39844,-0.199219 -0.83203,-0.398438 -1.30078,-0.597657 -0.23438,-0.367187 -0.46485,-0.71875 -0.69922,-1.050781 0.46484,0.234375 0.71484,0.28125 0.75,0.148438 0.0352,-0.132813 -0.16797,-0.515625 -0.60156,-1.148438 0.20312,0.09766 0.38672,0.214844 0.55078,0.347657 2.40234,3.035156 4.53515,6.519531 6.40234,10.453124 m -5.95312,-2.25 c 0.53515,0.06641 0.66797,-0.433593 0.40234,-1.5 C 277.28516,93.167969 276.76562,92.050781 276,90.75 c -0.80078,-1.265625 -1.61719,-2.332031 -2.44922,-3.199219 -0.93359,-0.96875 -1.68359,-1.535156 -2.25,-1.699219 -0.60156,-0.167968 -0.76562,0.148438 -0.5,0.949219 0.26563,0.800781 0.80078,1.867188 1.59766,3.199219 0.86718,1.398438 1.70312,2.632812 2.5,3.699219 0.96875,1.199219 1.71875,1.835937 2.25,1.902343 M 278,97.300781 c -0.86719,-0.06641 -1.96484,-0.902343 -3.30078,-2.5 -1.23438,-1.46875 -2.39844,-3.132812 -3.5,-5 -1.09766,-1.765625 -1.75,-3.132812 -1.94922,-4.101562 -0.23438,-1 0.13281,-1.367188 1.10156,-1.097657 0.89844,0.265626 2,1.03125 3.29688,2.296876 1.13672,1.167968 2.20312,2.535156 3.20312,4.101562 1,1.699219 1.63281,3.132812 1.89844,4.300781 0.30078,1.398438 0.0508,2.066407 -0.75,2 m -6.35156,-0.652343 c -0.53125,0 -1.08203,0.01953 -1.64844,0.05078 -1.73438,-3.832031 -3.60156,-7.25 -5.60156,-10.25 -1.03125,-0.09766 -2.09766,-0.183594 -3.19922,-0.25 -0.26563,-0.398438 -0.51563,-0.800781 -0.75,-1.199219 1.10156,0.03516 1.80078,-0.06641 2.10156,-0.300781 0.33203,-0.265625 0.33203,-0.78125 0,-1.550781 0.39844,0.03516 0.81641,0.08594 1.25,0.152343 2.80078,3.734375 5.41406,8.183594 7.84766,13.347657 M 257.25,95.800781 c 1.19922,-0.132812 1.78516,-0.917969 1.75,-2.351562 0.0352,-1.265625 -0.39844,-2.683594 -1.30078,-4.25 C 256.89844,87.632812 255.91797,86.398438 254.75,85.5 c -1.23438,-1.035156 -2.43359,-1.515625 -3.60156,-1.449219 -1.13282,0.06641 -1.76563,0.632813 -1.89844,1.699219 -0.13281,1.066406 0.18359,2.367188 0.94922,3.898438 0.80078,1.667968 1.8164,3.085937 3.05078,4.25 1.43359,1.367187 2.76562,2 4,1.902343 m 0.94922,2.148438 c -1.9336,0.199219 -3.94922,-0.597657 -6.05078,-2.398438 -1.79688,-1.601562 -3.23047,-3.484375 -4.29688,-5.652343 -0.93359,-2.03125 -1.20312,-3.699219 -0.80078,-5 0.39844,-1.398438 1.5,-2.132813 3.30078,-2.199219 1.73047,-0.06641 3.48047,0.515625 5.25,1.75 1.63281,1.199219 2.98047,2.765625 4.04688,4.699219 1.16797,2.101562 1.68359,3.96875 1.55078,5.601562 -0.13281,1.933594 -1.13281,3 -3,3.199219 m -34.89844,5.402341 c 1.39844,-0.53515 2.38281,-1.73437 2.94922,-3.60156 0.5,-1.601562 0.60156,-3.285156 0.30078,-5.050781 C 226.25,93 225.68359,91.75 224.85156,90.949219 c -0.93359,-0.867188 -2,-1.066407 -3.20312,-0.597657 -1.16407,0.464844 -2.04688,1.414063 -2.64844,2.847657 -0.56641,1.367187 -0.78516,2.917969 -0.64844,4.652343 0.16406,1.832032 0.64844,3.281248 1.44922,4.347658 0.96484,1.26562 2.13281,1.65234 3.5,1.15234 m 0.39844,2.39844 c -2.16406,0.80078 -3.96485,0.38281 -5.39844,-1.25 -1.23437,-1.39844 -1.93359,-3.30078 -2.10156,-5.699219 -0.13281,-2.265625 0.23437,-4.285156 1.10156,-6.050781 0.93359,-1.933594 2.33203,-3.25 4.19922,-3.949219 1.86719,-0.699219 3.48437,-0.550781 4.85156,0.449219 1.33203,0.964844 2.23047,2.515625 2.69922,4.648438 0.46484,2.300781 0.30078,4.550781 -0.5,6.750002 -1.03516,2.53515 -2.65234,4.23437 -4.85156,5.10156 m -11.75,4.30078 c -0.73438,0.33203 -1.4336,0.66406 -2.09766,1 -0.43359,-4.46875 -0.61719,-8.5664 -0.55078,-12.30078 -1.10156,0.601562 -2.15234,1.214844 -3.15234,1.85156 0.0352,-0.5 0.0508,-0.999998 0.0508,-1.499998 1.03515,-0.601562 1.8164,-1.234374 2.35156,-1.902343 0.59766,-0.699219 1.05078,-1.632813 1.34766,-2.800781 0.46875,-0.265626 0.95312,-0.53125 1.45312,-0.796876 -0.23437,4.699219 -0.0352,10.183598 0.59766,16.449218 M 200.25,114.5 c 0.60156,-0.39844 1.06641,-1.43359 1.39844,-3.10156 0.30078,-1.5 0.46875,-3.11328 0.5,-4.84766 0,-1.66797 -0.13282,-2.91797 -0.39844,-3.75 -0.33203,-0.86719 -0.80078,-1.05078 -1.39844,-0.55078 -0.60156,0.46484 -1.11719,1.41797 -1.55078,2.85156 -0.36719,1.29688 -0.56641,2.73047 -0.60156,4.29688 0,1.66797 0.16797,2.98437 0.5,3.95312 0.40234,1.16407 0.91797,1.54688 1.55078,1.14844 m 0.14844,2.10156 c -0.96485,0.53125 -1.76563,0.082 -2.39844,-1.35156 -0.53516,-1.26562 -0.78516,-2.96484 -0.75,-5.10156 0.0352,-2.03125 0.33203,-3.88281 0.89844,-5.54688 0.63672,-1.86718 1.41797,-3.18359 2.35156,-3.95312 0.96484,-0.765628 1.71484,-0.64844 2.25,0.35156 0.46484,0.96484 0.69922,2.53516 0.69922,4.69922 0,2.33594 -0.23438,4.51562 -0.69922,6.55078 -0.60156,2.26563 -1.38281,3.71484 -2.35156,4.35156 M 195.5,119.19922 c -0.26563,0.19922 -0.53516,0.40234 -0.80078,0.60156 -0.30078,-3.53515 -0.33203,-6.90234 -0.0977,-10.10156 -0.36719,0.46875 -0.73437,0.90234 -1.10156,1.30078 0.0352,-0.39844 0.0664,-0.81641 0.10156,-1.25 0.36328,-0.43359 0.66406,-0.93359 0.89844,-1.5 0.23437,-0.60156 0.46484,-1.41797 0.69922,-2.44922 0.19922,-0.23437 0.40234,-0.44922 0.60156,-0.65234 -0.63281,4.30078 -0.73437,8.98437 -0.30078,14.05078 m -3.85156,2.19922 c 0.13672,-0.19922 0.23437,-0.91406 0.30078,-2.14844 0.0664,-1.10156 0.11719,-2.33203 0.15234,-3.69922 0.0312,-1.36719 0.0469,-2.40234 0.0469,-3.10156 -0.0312,-0.80078 -0.11328,-1.01563 -0.25,-0.64844 -0.16407,0.30078 -0.33203,1 -0.5,2.09766 -0.13282,1.03515 -0.21485,2.16797 -0.25,3.40234 -0.0312,1.26563 0,2.28125 0.10156,3.05078 0.10156,0.9336 0.23437,1.28125 0.39844,1.04688 m 0.10156,1.55078 c -0.23438,0.30078 -0.43359,-0.13281 -0.60156,-1.30078 -0.16407,-0.96485 -0.23047,-2.26563 -0.19922,-3.89844 0.0664,-1.60156 0.19922,-3.05078 0.40234,-4.35156 0.23047,-1.4336 0.46485,-2.41406 0.69922,-2.94922 0.26563,-0.53125 0.41406,-0.34766 0.44922,0.55078 0.0352,0.89844 0.0352,2.23438 0,4 -0.0352,1.83203 -0.10156,3.5 -0.19922,5 -0.10156,1.66797 -0.28516,2.64844 -0.55078,2.94922 M 269.6992,81.050781 c 0.26562,0.265625 0.21875,0.347657 -0.14844,0.25 -0.36719,-0.101562 -0.86719,-0.300781 -1.5,-0.601562 -0.66797,-0.300781 -1.28516,-0.597657 -1.85156,-0.898438 -0.63281,-0.335937 -1.09766,-0.632812 -1.39844,-0.902343 -0.26562,-0.296876 -0.25,-0.449219 0.0508,-0.449219 0.26563,0.03516 0.73047,0.183593 1.39844,0.449219 0.69922,0.300781 1.36719,0.652343 2,1.050781 0.69922,0.46875 1.18359,0.835937 1.44922,1.101562 m 0.80078,0.5 c -0.43359,-0.46875 -1.14844,-1.035156 -2.14844,-1.699219 -0.86719,-0.566406 -1.75,-1.050781 -2.65234,-1.453124 -0.89844,-0.363282 -1.5,-0.515626 -1.80078,-0.449219 -0.33203,0.03516 -0.26563,0.265625 0.20312,0.699219 0.4336,0.433593 1.08203,0.886718 1.94922,1.351562 0.80078,0.433594 1.59766,0.832031 2.39844,1.199219 0.86719,0.402343 1.51562,0.667969 1.94922,0.800781 0.46875,0.132812 0.5,-0.01563 0.10156,-0.449219 m -27.89844,-8.851562 c 0.86328,0 1.36328,-0.132813 1.5,-0.398438 0.0977,-0.234375 -0.0664,-0.46875 -0.5,-0.699219 C 243.19922,71.398438 242.66797,71.25 242,71.148438 c -0.73438,-0.09766 -1.46484,-0.132813 -2.19922,-0.09766 -0.76562,0 -1.26562,0.06641 -1.5,0.199219 -0.19922,0.132812 -0.15234,0.300781 0.14844,0.5 0.33594,0.234375 0.85156,0.449219 1.55078,0.648438 0.83203,0.234374 1.69922,0.335937 2.60156,0.300781 m 0.5,0.449219 c -1.43359,0.06641 -2.76953,-0.06641 -4,-0.398438 -1.03515,-0.234375 -1.75,-0.515625 -2.15234,-0.851562 -0.36719,-0.265626 -0.33203,-0.480469 0.10156,-0.648438 0.43359,-0.167969 1.23438,-0.265625 2.39844,-0.300781 1.13281,-0.03125 2.21875,0 3.25,0.101562 1,0.132813 1.78515,0.332031 2.35156,0.597657 0.63281,0.300781 0.83203,0.601562 0.59766,0.902343 -0.29688,0.367188 -1.14844,0.566407 -2.54688,0.597657 M 234,74 c -0.63281,0.101562 -1.28516,0.214844 -1.94922,0.351562 -0.40234,-0.867187 -0.76562,-1.535156 -1.10156,-2 -0.96485,0.199219 -1.91406,0.414063 -2.84766,0.648438 -0.0352,-0.03516 -0.0508,-0.08203 -0.0508,-0.148438 0.93359,-0.234374 1.61719,-0.417968 2.05078,-0.550781 0.46485,-0.132812 0.78125,-0.25 0.94922,-0.351562 0.36719,-0.09766 0.75,-0.183594 1.14844,-0.25 C 232.73437,72.035156 233.33203,72.800781 234,74 m -12.85156,3.199219 c 0.86718,-0.367188 1.5664,-0.800781 2.10156,-1.300781 0.43359,-0.433594 0.66797,-0.816407 0.69922,-1.148438 0.0352,-0.265625 -0.14844,-0.398438 -0.55078,-0.398438 -0.39844,0 -0.96485,0.148438 -1.69922,0.449219 -0.69922,0.265625 -1.31641,0.582031 -1.84766,0.949219 -0.53515,0.332031 -0.85156,0.667969 -0.95312,1 -0.16407,0.367188 -0.0664,0.617188 0.30078,0.75 0.40234,0.132812 1.05078,0.03516 1.94922,-0.300781 M 221.10156,77.75 c -1.40234,0.535156 -2.43359,0.734375 -3.10156,0.601562 -0.56641,-0.136718 -0.73438,-0.453124 -0.5,-0.953124 0.19922,-0.433594 0.68359,-0.882813 1.44922,-1.347657 0.80078,-0.535156 1.76562,-1.015625 2.90234,-1.449219 1.09766,-0.433593 1.98047,-0.683593 2.64844,-0.75 0.63281,-0.06641 0.94922,0.08203 0.94922,0.449219 0.0352,0.398438 -0.30078,0.898438 -1,1.5 -0.80078,0.734375 -1.91406,1.382813 -3.34766,1.949219 m -7.90234,3.601562 c -0.53125,0.296876 -1.05078,0.597657 -1.55078,0.898438 0.5,-1.265625 1.0664,-2.300781 1.70312,-3.101562 -0.73437,0.46875 -1.46875,0.953124 -2.20312,1.453124 0.10156,-0.136718 0.20312,-0.234374 0.30078,-0.300781 0.69922,-0.5 1.26562,-0.902343 1.69922,-1.199219 0.5,-0.300781 0.93359,-0.585937 1.30078,-0.851562 0.30078,-0.199219 0.61719,-0.382812 0.94922,-0.550781 -0.89844,0.734375 -1.63282,1.949219 -2.19922,3.652343"
       id="path10"
       inkscape:connector-curvature="0" />
    <path
       style="fill:#00bade;fill-opacity:1;fill-rule:evenodd;stroke:none"
       d="m 268.44922,157 c -0.56641,0.30078 -1.14844,0.60156 -1.75,0.89844 0.36719,-1.86328 0.61719,-4.08203 0.75,-6.64844 -1.16406,0.60156 -2.34766,1.18359 -3.55078,1.75 0,-0.39844 0,-0.80078 0,-1.19922 1.23437,-0.56641 2.15234,-1.15234 2.75,-1.75 0.66797,-0.66797 1.15234,-1.56641 1.45312,-2.69922 0.5,-0.26953 1,-0.53515 1.5,-0.80078 C 269.5,150.68359 269.11719,154.16797 268.44922,157 M 251,80.851562 c -0.73438,0 -1.48438,0.01563 -2.25,0.04688 -1.39844,-2.199219 -2.73438,-4.046876 -4,-5.546876 -1.16797,0.03125 -2.33203,0.09766 -3.5,0.199219 -0.16797,-0.199219 -0.31641,-0.382812 -0.44922,-0.550781 1.16406,-0.101562 1.98438,-0.234375 2.44922,-0.398438 0.46484,-0.203124 0.66797,-0.484374 0.60156,-0.851562 0.46485,0 0.9336,0 1.39844,0 1.76562,1.699219 3.68359,4.066406 5.75,7.101562 M 256.89844,149.75 c -0.86328,0.30078 -1.75,0.60156 -2.64844,0.89844 -0.63281,-3.5 -1.38281,-7.46485 -2.25,-11.89844 -1.76563,0.56641 -3.55078,1.11719 -5.35156,1.64844 -0.19922,-0.66407 -0.38282,-1.33203 -0.54688,-2 1.89844,-0.53125 3.23047,-1.21485 4,-2.04688 0.86328,-0.90234 1.34766,-2.25 1.44922,-4.05078 0.80078,-0.26562 1.58203,-0.53516 2.34766,-0.80078 1.26953,7.03516 2.26953,13.11719 3,18.25"
       id="path12"
       inkscape:connector-curvature="0" />
    <path
       style="fill:#94ba33;fill-opacity:1;fill-rule:evenodd;stroke:none"
       d="m 231.30078,165.60156 c 0.93359,0 1.44922,-0.26953 1.55078,-0.80078 0.0977,-0.53516 -0.16797,-1.21875 -0.80078,-2.05078 -0.66797,-0.96484 -1.53516,-1.80078 -2.60156,-2.5 -1.16406,-0.83203 -2.28125,-1.25 -3.34766,-1.25 -1,-0.0352 -1.48437,0.36719 -1.45312,1.19922 0.0352,0.69922 0.43359,1.5 1.20312,2.40234 0.69922,0.86328 1.53125,1.56641 2.5,2.09766 1.03125,0.5664 2.01563,0.86719 2.94922,0.90234 M 232,166.30078 c -1.39844,-0.0352 -2.83203,-0.41797 -4.30078,-1.15234 -1.36719,-0.66407 -2.53125,-1.54688 -3.5,-2.64844 -1.03125,-1.23438 -1.51563,-2.30078 -1.44922,-3.19922 0.0352,-1.10156 0.85156,-1.65234 2.44922,-1.65234 1.66797,0.0352 3.38281,0.61718 5.15234,1.75 1.56641,0.93359 2.76563,2.01953 3.59766,3.25 0.80078,1.13672 1.03515,2.03515 0.69922,2.70312 -0.33203,0.66406 -1.21485,0.98047 -2.64844,0.94922 m -18,-32.10156 c 1.03516,-0.19922 1.60156,-1.25 1.69922,-3.14844 0.0664,-1.80078 -0.1836,-3.90234 -0.75,-6.30078 -0.59766,-2.46484 -1.31641,-4.39844 -2.14844,-5.80078 -0.93359,-1.56641 -1.90234,-2.13281 -2.90234,-1.69922 -0.96485,0.43359 -1.56641,1.60156 -1.79688,3.5 -0.16797,1.73438 0,3.69922 0.5,5.89844 0.56641,2.23437 1.31641,4.05078 2.25,5.45312 1.09766,1.59766 2.14844,2.29688 3.14844,2.09766 m 0.89844,2.44922 C 213.26562,136.88281 211.68359,136 210.14844,134 208.75,132.26562 207.69922,129.98437 207,127.14844 c -0.63281,-2.83203 -0.76563,-5.34766 -0.39844,-7.54688 0.46485,-2.53515 1.44922,-4.13672 2.94922,-4.80078 1.56641,-0.69922 3.03125,-0.11719 4.39844,1.75 1.30078,1.83203 2.33594,4.34766 3.10156,7.55078 0.83203,3.26563 1.09766,6.08203 0.80078,8.44922 -0.26953,2.5 -1.25,3.86719 -2.95312,4.09766 m 33.5,-10.14844 c 1.66797,-0.5 2.70312,-1.96484 3.10156,-4.39844 0.39844,-2.20312 0.19922,-4.66797 -0.60156,-7.40234 -0.79688,-2.76563 -1.91407,-4.91406 -3.34766,-6.44922 -1.56641,-1.73437 -3.18359,-2.41797 -4.85156,-2.05078 -1.59766,0.36719 -2.63281,1.63281 -3.09766,3.80078 -0.40234,2.06641 -0.21875,4.51563 0.54688,7.35156 0.83593,3 1.96875,5.38282 3.40234,7.14844 1.56641,1.86719 3.18359,2.53516 4.84766,2 m 0.70312,2.94922 c -2.60156,0.83594 -5.05078,0.11719 -7.35156,-2.14844 -2.19922,-2.13281 -3.81641,-5.15234 -4.85156,-9.05078 -0.9336,-3.73437 -0.98047,-6.91797 -0.14844,-9.55078 0.83203,-2.86719 2.53516,-4.58203 5.10156,-5.14844 2.5,-0.53515 4.88281,0.26563 7.14844,2.39844 2.06641,1.96875 3.61719,4.66797 4.64844,8.10156 1.03515,3.53125 1.18359,6.69922 0.45312,9.5 -0.80078,3.13281 -2.46875,5.09766 -5,5.89844"
       id="path14"
       inkscape:connector-curvature="0" />
    <path
       style="fill:#faa619;fill-opacity:1;fill-rule:evenodd;stroke:none"
       d="m 255.39844,162 c 1.03515,-0.33203 1.8164,-0.91797 2.35156,-1.75 0.53516,-0.83203 0.76562,-1.73438 0.69922,-2.69922 -0.0977,-1.06641 -0.5,-1.90234 -1.19922,-2.5 -0.80078,-0.66797 -1.81641,-0.81641 -3.05078,-0.44922 -1.23438,0.39844 -2.09766,1.16406 -2.59766,2.29688 -0.46875,0.96875 -0.5664,1.95312 -0.30078,2.95312 0.23438,0.9336 0.69922,1.59766 1.39844,2 0.76562,0.4336 1.66797,0.48047 2.69922,0.14844 m 0.15234,0.80078 c -1.60156,0.5 -2.96875,0.51563 -4.10156,0.0508 -1.13281,-0.43359 -1.88281,-1.25 -2.25,-2.45312 -0.39844,-1.29688 -0.25,-2.61328 0.44922,-3.94922 0.83593,-1.56641 2.25,-2.66406 4.25,-3.30078 1.96875,-0.63282 3.5664,-0.5 4.80078,0.40234 1.10156,0.76563 1.66797,1.84766 1.69922,3.25 0.0351,1.30078 -0.36328,2.48438 -1.19922,3.55078 -0.86719,1.09766 -2.08203,1.91406 -3.64844,2.44922 M 276,116.94922 c 0.76562,-0.26563 1.18359,-1.26563 1.25,-3 0.0352,-1.53125 -0.23438,-3.28125 -0.80078,-5.25 -0.56641,-2.03125 -1.30078,-3.68359 -2.19922,-4.94922 -1,-1.43359 -1.89844,-2.10156 -2.69922,-2 -0.83594,0.0664 -1.23437,0.91797 -1.19922,2.55078 0.0312,1.53125 0.38281,3.38281 1.04688,5.55078 0.63672,2.19922 1.35156,3.96485 2.15234,5.29688 0.83203,1.53515 1.64844,2.13672 2.44922,1.80078 m 0.44922,2.35156 c -1.23438,0.53125 -2.46485,-0.15234 -3.69922,-2.05078 -1.16797,-1.76562 -2.18359,-4.11719 -3.05078,-7.05078 -0.86719,-2.89844 -1.26563,-5.33203 -1.19922,-7.30078 0.10156,-2.13281 0.83203,-3.230471 2.19922,-3.296878 1.26562,-0.101562 2.60156,0.765628 4,2.597658 1.26562,1.63281 2.26562,3.69922 3,6.19922 0.76562,2.5664 1.05078,4.83594 0.85156,6.80078 -0.19922,2.23437 -0.90234,3.60156 -2.10156,4.10156 M 209.05078,91.75 c 0.86719,-0.535156 1.61719,-1.398438 2.25,-2.601562 0.53125,-1.03125 0.88281,-2.046876 1.05078,-3.046876 0.16406,-0.933593 0.0977,-1.566406 -0.20312,-1.902343 -0.33203,-0.300781 -0.88282,-0.214844 -1.64844,0.25 -0.76563,0.46875 -1.46484,1.152343 -2.10156,2.050781 -0.53125,0.867188 -0.9336,1.785156 -1.19922,2.75 -0.23438,1.035156 -0.19922,1.816406 0.10156,2.351562 0.33203,0.597657 0.91406,0.648438 1.75,0.148438 m -0.15234,1.398438 c -1.33203,0.800781 -2.26563,0.816406 -2.79688,0.05078 -0.46875,-0.632813 -0.53515,-1.648438 -0.20312,-3.050781 0.33593,-1.265626 0.91797,-2.464844 1.75,-3.597657 0.90234,-1.265625 1.93359,-2.25 3.10156,-2.949219 1.16797,-0.734374 2.03516,-0.933593 2.60156,-0.601562 0.56641,0.332031 0.78125,1.082031 0.64844,2.25 -0.19922,1.300781 -0.69922,2.683594 -1.5,4.148438 -1,1.667968 -2.19922,2.917968 -3.60156,3.75 M 244.75,99.25 c -1.03516,0.167969 -2.08203,0.367188 -3.14844,0.601562 -1.46875,-4.367187 -2.8164,-8.269531 -4.05078,-11.703124 -1.56641,0.335937 -3.15234,0.71875 -4.75,1.152343 -0.10156,-0.46875 -0.23437,-0.917969 -0.40234,-1.351562 1.60156,-0.398438 2.71875,-0.847657 3.35156,-1.347657 0.73437,-0.535156 1.11719,-1.285156 1.14844,-2.25 0.63672,-0.101562 1.26953,-0.21875 1.90234,-0.351562 1.76563,4.167969 3.75,9.25 5.94922,15.25"
       id="path16"
       inkscape:connector-curvature="0" />
  </g>
</svg>
